<svg height="56" viewBox="0 0 56 56" width="56" xmlns="http://www.w3.org/2000/svg"><path d="m31.211 14.9453c.2812 0 .4453-.1875.4921-.4453.7266-3.8906.7032-3.9844 4.7579-4.7813.2812-.0468.4453-.1875.4453-.4687 0-.3047-.1641-.4453-.4453-.4922-4.0547-.8203-4.0313-.8906-4.7579-4.7813-.0468-.2578-.2109-.4453-.4921-.4453-.2813 0-.4219.1875-.4688.4453-.75 3.8907-.7031 3.961-4.7812 4.7813-.2579.0469-.4453.1875-.4453.4922 0 .2812.1874.4219.4453.4687 4.1016.7969 4.0312.8907 4.7812 4.7813.0469.2578.1875.4453.4688.4453zm11.2265 15.8438c.4219 0 .7266-.3047.7735-.75.7734-6.2813 1.0781-6.4688 7.4296-7.4531.5155-.0938.8203-.3282.8203-.7969 0-.4453-.3048-.7266-.7267-.7969-6.3982-1.2188-6.7498-1.1719-7.5232-7.4531-.0469-.4453-.3516-.75-.7735-.75-.4453 0-.75.3047-.7968.7265-.8203 6.3516-1.0313 6.5625-7.5235 7.4766-.4219.0469-.7265.3516-.7265.7969s.3046.7031.7265.7969c6.4922 1.1952 6.7266 1.2187 7.5235 7.5.0468.3984.3515.7031.7968.7031zm-17.6484 21.6797c8.4844 0 15.2578-4.2891 18.4922-11.5079.3984-.8671.3281-1.6171-.0938-2.0156-.3749-.3515-1.0312-.3984-1.7578-.1406-1.8984.75-4.125 1.125-6.6797 1.125-10.6406 0-17.4374-6.6563-17.4374-17.0391 0-2.9531.5624-5.789 1.289-7.2421.3984-.8204.3984-1.5235.0469-1.9688-.4219-.4688-1.1719-.5391-2.0859-.1875-7.1954 2.8359-12.0235 10.4765-12.0235 19.0547 0 11.414 8.414 19.9219 20.25 19.9219z"/></svg>